<svg width="220" height="47" viewBox="0 0 220 47" fill="none" xmlns="http://www.w3.org/2000/svg">
<path d="M50.1714 16.1743H57.9836C58.9651 16.1743 59.711 16.9595 59.711 17.9016V43.4977C59.711 44.4791 58.9258 45.225 57.9836 45.225H50.1714V41.9666C47.5411 44.9894 44.4397 46.3635 40.3177 46.3635C32.0343 46.3635 26.0671 40.0037 26.0671 31.0922C26.0671 21.7882 32.4269 14.9966 41.1421 14.9966C44.8323 14.9966 47.3448 16.1743 50.1714 19.2757V16.1743ZM36.1956 30.9352C36.1956 35.4106 39.2185 38.8653 43.105 38.8653C47.07 38.8653 50.2499 35.2143 50.2499 30.8174C50.2499 26.185 47.3056 22.9659 43.1442 22.9659C39.1007 22.9266 36.1956 26.2635 36.1956 30.9352Z" fill="#282828"/>
<path d="M103.012 16.1743H110.824C111.806 16.1743 112.552 16.9595 112.552 17.9016V43.4977C112.552 44.4791 111.767 45.225 110.824 45.225H103.012V41.9666C100.382 44.9894 97.2806 46.3635 93.1585 46.3635C84.8751 46.3635 78.908 40.0037 78.908 31.0922C78.908 21.7882 85.2677 14.9966 93.9829 14.9966C97.6731 14.9966 100.186 16.1743 103.012 19.2757V16.1743ZM89.0757 30.9352C89.0757 35.4106 92.0985 38.8653 95.9851 38.8653C99.9501 38.8653 103.13 35.2143 103.13 30.8174C103.13 26.185 100.186 22.9659 96.0243 22.9659C91.9415 22.9266 89.0757 26.2635 89.0757 30.9352Z" fill="#282828"/>
<path d="M5.3783 3.33691V12.3662H12.6017V27.7159C12.6017 32.6232 12.0914 33.6438 10.4818 34.9001C9.34333 35.7638 7.4197 36.2741 5.26053 36.2741H0V45.6567H3.57245C6.51677 45.6567 9.14704 45.6175 11.3062 45.3427C13.9365 45.0286 16.449 44.0471 18.4904 42.3591C21.7488 39.6895 22.8087 36.1171 22.8087 29.4433V5.06425C22.8087 4.08281 22.0236 3.33691 21.0814 3.33691H5.3783Z" fill="#282828"/>
<path d="M65.2463 45.2249V3.33691H73.0586C74.0401 3.33691 74.786 4.12207 74.786 5.06425V43.4583C74.786 44.4397 74.0008 45.1856 73.0586 45.1856H65.2463V45.2249Z" fill="#282828"/>
<path d="M220 24.1434V16.2133H214.857V8.87212H207.045C206.063 8.87212 205.318 9.65728 205.318 10.5995V16.2133H197.034V12.4446C197.034 10.3247 198.094 9.22544 200.41 8.9899V0.117653C191.617 -0.117893 187.416 3.80789 187.455 12.4446V16.2133H183.765V22.3768C183.765 23.3582 184.55 24.1041 185.492 24.1041H187.416V45.264H196.956V24.1041H202.295H205.239V39.2576C205.161 43.4582 206.692 45.1462 210.774 45.3033H220V37.3732H217.173C215.368 37.2555 214.857 36.8629 214.857 35.4888V24.1041H220V24.1434Z" fill="#EF293D"/>
<path d="M166.256 14.6431C157.463 14.6431 150.318 21.788 150.318 30.5817C150.318 39.3754 157.463 46.5203 166.256 46.5203C175.05 46.5203 182.195 39.3754 182.195 30.5817C182.195 21.788 175.05 14.6431 166.256 14.6431ZM166.256 37.8444C162.252 37.8444 158.994 34.586 158.994 30.5817C158.994 26.5774 162.252 23.319 166.256 23.319C170.261 23.319 173.519 26.5774 173.519 30.5817C173.519 34.586 170.261 37.8444 166.256 37.8444Z" fill="#EF293D"/>
<path d="M134.85 36.1563C136.813 34.7431 137.245 31.995 135.831 29.9929L126.488 16.9986C126.449 16.9593 126.41 16.9201 126.41 16.8808L126.37 16.8023C125.232 14.7216 125.389 12.1306 126.881 10.2855C129.432 7.10564 134.104 7.4197 136.303 10.4818L139.168 14.4468C139.6 15.0357 140.228 15.3498 140.935 15.3498H146.078C146.078 6.90935 139.208 0 130.728 0C130.375 0 130.021 -9.58498e-06 129.668 0.0392481C124.839 0.35331 120.521 3.14062 118.165 7.45896C118.048 7.65525 117.969 7.85154 117.851 8.04783C115.653 12.5232 116.242 17.8622 119.147 21.9058L128.687 35.1356C130.139 37.1378 132.887 37.5696 134.85 36.1563Z" fill="#282828"/>
<path d="M145.999 38.5117C148.198 34.0363 147.609 28.658 144.665 24.6145L135.086 11.3453C133.673 9.38245 130.924 8.95062 128.922 10.3639C127.116 11.6987 126.567 14.1326 127.666 16.0955L127.745 16.2525L137.049 29.1291C138.933 31.7594 138.344 35.4496 135.714 37.3732C134.693 38.1191 133.476 38.4724 132.259 38.4724C130.414 38.4724 128.608 37.6087 127.47 36.0384L124.643 32.1519C124.211 31.563 123.583 31.249 122.877 31.249H117.734C117.734 39.6894 124.604 46.5988 133.084 46.5988C133.437 46.5988 133.79 46.5988 134.144 46.5595C138.972 46.2454 143.291 43.4582 145.646 39.1398C145.764 38.9043 145.882 38.708 145.999 38.5117Z" fill="#EF293D"/>
</svg>
